<?xml version="1.0" encoding="UTF-8"?>
<svg version="1.1" xmlns="http://www.w3.org/2000/svg" width="512" height="512">
<path d="M0 0 C1.10085938 -0.00708984 2.20171875 -0.01417969 3.3359375 -0.02148438 C8.90859376 0.02247469 12.49375294 0.06636376 17.125 3.4375 C18.66381836 5.12890625 18.66381836 5.12890625 19.96484375 7 C20.71217773 8.05670898 20.71217773 8.05670898 21.47460938 9.13476562 C21.99861328 9.89466797 22.52261719 10.65457031 23.0625 11.4375 C24.21641382 13.07364646 25.37139707 14.70903913 26.52734375 16.34375 C27.12015137 17.18679687 27.71295898 18.02984375 28.32373047 18.8984375 C31.20059281 22.95365143 34.16452993 26.94316242 37.125 30.9375 C38.28412439 32.51412428 39.44297794 34.09094773 40.6015625 35.66796875 C43.00931776 38.93968325 45.44586732 42.18755294 47.8984375 45.42578125 C49.09922322 47.03365638 50.29975332 48.64172245 51.5 50.25 C52.06589844 50.98476563 52.63179688 51.71953125 53.21484375 52.4765625 C55.50684217 55.57277089 56.99100229 57.84747781 57.8515625 61.63671875 C56.53910952 66.6960133 52.66337063 68.51174497 48.43115234 71.05859375 C45.24654284 72.89325571 42.0359607 74.67204698 38.8125 76.4375 C37.72259766 77.04078125 36.63269531 77.6440625 35.50976562 78.265625 C33.36106836 79.45432102 31.20566566 80.63098374 29.04345703 81.79492188 C26.19558472 83.33041501 26.19558472 83.33041501 23.96826172 84.97070312 C17.04565998 89.73369703 9.43034798 89.12512126 1.33984375 88.97949219 C-1.13361409 88.93735325 -3.60436571 88.93845727 -6.078125 88.9453125 C-7.66147715 88.93482699 -9.2448154 88.92189233 -10.828125 88.90625 C-11.56154114 88.90604858 -12.29495728 88.90584717 -13.05059814 88.90563965 C-17.44225034 88.80455859 -20.45924177 88.28725828 -23.875 85.4375 C-24.23171265 82.71983325 -24.32957471 80.45368954 -24.25 77.75 C-24.3306331 72.66330089 -24.50943715 68.77413438 -28 64.8125 C-29.25923853 63.65131693 -30.55139689 62.52474541 -31.875 61.4375 C-32.4834375 60.84195313 -33.091875 60.24640625 -33.71875 59.6328125 C-37.22681495 56.28811115 -37.22681495 56.28811115 -41.8125 55.0625 C-42.493125 55.18625 -43.17375 55.31 -43.875 55.4375 C-44.535 57.0875 -45.195 58.7375 -45.875 60.4375 C-44.79351833 61.68910238 -43.70972078 62.93870381 -42.625 64.1875 C-42.02171875 64.88359375 -41.4184375 65.5796875 -40.796875 66.296875 C-38.94496098 68.48902012 -38.94496098 68.48902012 -36.67578125 70.13671875 C-33.91710411 73.66136265 -34.31595919 77.14488206 -34.3125 81.5 C-34.30355764 83.11601228 -34.28193785 84.73201679 -34.24609375 86.34765625 C-34.2450061 87.41705444 -34.2450061 87.41705444 -34.24389648 88.50805664 C-33.75468661 91.06677645 -32.90387627 91.82667829 -30.875 93.4375 C-22.61008697 98.5798455 -14.73221756 99.20546788 -5.1875 99.25 C-3.90166016 99.27513672 -2.61582031 99.30027344 -1.29101562 99.32617188 C1.84796495 99.38451724 4.98556767 99.42118378 8.125 99.4375 C14.125 111.4375 14.125 111.4375 15.20410156 113.76000977 C16.44660521 116.02332963 17.77756773 116.43941292 20.125 117.4375 C21.55239289 118.27361883 22.96928115 119.12793368 24.375 120 C25.43460937 120.65162109 25.43460937 120.65162109 26.515625 121.31640625 C27.04671875 121.68636719 27.5778125 122.05632812 28.125 122.4375 C28.125 122.7675 28.125 123.0975 28.125 123.4375 C26.67601318 123.467229 26.67601318 123.467229 25.19775391 123.49755859 C-3.70084764 123.92316574 -3.70084764 123.92316574 -32.25 128 C-41.11492567 129.82671196 -49.99721049 129.81288341 -59.02880859 129.70727539 C-66.88490239 129.77682258 -71.24419999 130.89942803 -76.875 136.4375 C-77.6175 137.05753906 -78.36 137.67757812 -79.125 138.31640625 C-99.3243969 157.74930818 -107.67014169 190.37787199 -108.26475525 217.5135498 C-108.29113335 218.95293802 -108.31552686 220.39236382 -108.33804321 221.83181763 C-108.40199479 225.69188404 -108.50306641 229.55094503 -108.60546875 233.41015625 C-108.62590744 234.18163498 -108.64634613 234.95311371 -108.66740417 235.74797058 C-108.9836093 247.01538586 -109.75019006 258.22267905 -110.875 269.4375 C-110.98650391 270.61892578 -111.09800781 271.80035156 -111.21289062 273.01757812 C-111.57121859 276.60277392 -111.99335144 280.17451641 -112.4375 283.75 C-112.59859253 285.37917358 -112.59859253 285.37917358 -112.76293945 287.04125977 C-113.78288931 294.3540968 -113.78288931 294.3540968 -116.8347168 297.3815918 C-119.1189492 298.93280822 -121.40108461 300.21556716 -123.875 301.4375 C-124.86886719 302.00855469 -125.86273438 302.57960938 -126.88671875 303.16796875 C-127.76972656 303.64878906 -128.65273437 304.12960937 -129.5625 304.625 C-145.54627958 313.8487607 -168.75797923 330.63183729 -176.875 347.4375 C-176.7500313 350.42141644 -176.7500313 350.42141644 -174.875 352.4375 C-173.09786468 353.69445267 -173.09786468 353.69445267 -170.875 353.4375 C-167.67135612 351.4460457 -165.36541858 348.89913854 -162.9375 346.0625 C-150.17017058 331.21805625 -135.9429689 319.10155545 -118.875 309.4375 C-118.27880859 309.09976562 -117.68261719 308.76203125 -117.06835938 308.4140625 C-87.92613302 292.17985892 -54.59328276 289.26607479 -22.57177734 298.07080078 C-17.55016083 299.56886962 -12.70275657 301.40522343 -7.875 303.4375 C-7.1109082 303.75847656 -6.34681641 304.07945312 -5.55957031 304.41015625 C9.83857869 311.01384673 23.60276868 319.53122223 35.79052734 331.08544922 C38.45768035 333.50763243 39.84768141 334.41272792 43.4921875 334.73828125 C44.36101562 334.63902344 45.22984375 334.53976562 46.125 334.4375 C47.07107807 331.68788489 47.07107807 331.68788489 47.125 328.4375 C37.98985299 318.20744271 24.65465157 308.1841823 12.125 302.4375 C12.125 301.7775 12.125 301.1175 12.125 300.4375 C25.86484458 293.34015477 39.51102054 286.53838843 54.125 281.4375 C54.84864746 281.17775391 55.57229492 280.91800781 56.31787109 280.65039062 C97.65231803 265.95611719 143.73078603 264.10831213 184.0625 282.6875 C192.25812911 286.61304545 199.29128306 291.44718484 206.125 297.4375 C206.66278328 297.81429146 207.20056656 298.19108292 207.7546463 298.5792923 C209.94140322 301.54454759 209.54414559 304.78805533 209.51940918 308.33288574 C209.52550028 309.14595924 209.53159139 309.95903274 209.53786707 310.79674482 C209.55456228 313.53065275 209.54971206 316.26409824 209.54492188 318.99804688 C209.55225836 320.95419298 209.56084335 322.91033474 209.57058716 324.86647034 C209.59285441 330.18661054 209.5957313 335.5065961 209.59383965 340.8267765 C209.5937202 345.26296927 209.60227348 349.69912896 209.61061716 354.13531256 C209.62986941 364.59722938 209.63272816 375.05906641 209.62597656 385.52099609 C209.61933157 396.32690798 209.6422145 407.13247888 209.67929029 417.93832159 C209.7099372 427.20546364 209.72135285 436.4724957 209.71745348 445.73968744 C209.71538106 451.279235 209.72094116 456.81851722 209.74534607 462.35801697 C209.76752845 467.56525275 209.76580656 472.77193204 209.74541855 477.97916985 C209.74199355 479.8936347 209.74716123 481.8081364 209.76140213 483.72255135 C209.77946289 486.32973062 209.76694571 488.93499522 209.74645996 491.54211426 C209.75897781 492.30562809 209.77149566 493.06914191 209.78439283 493.85579252 C209.74861908 495.9688797 209.74861908 495.9688797 209.125 499.4375 C205.25079098 502.71498439 202.05306107 502.79402844 197.07421875 502.73046875 C196.41541214 502.72622391 195.75660553 502.72197906 195.07783508 502.71760559 C192.98896115 502.70091196 190.90107861 502.66328058 188.8125 502.625 C187.38998797 502.60994097 185.9674607 502.59625469 184.54492188 502.58398438 C181.07129649 502.55104003 177.59824513 502.49932408 174.125 502.4375 C173.96725098 501.43009766 173.80950195 500.42269531 173.64697266 499.38476562 C170.29988116 478.92752138 159.15535376 464.77915599 142.6796875 452.8359375 C138.07853518 449.64570071 133.21742858 446.89732414 128.36376953 444.11425781 C117.08959441 437.6070842 107.51324085 429.38441328 98.125 420.4375 C97.04605469 419.43783203 97.04605469 419.43783203 95.9453125 418.41796875 C87.19950304 410.07608222 80.26027445 400.44096962 74.79296875 389.703125 C73.29805186 387.22423711 73.29805186 387.22423711 70.54296875 386.54296875 C68.11710275 386.22297722 68.11710275 386.22297722 66.25 387.5 C64.55860006 390.41296657 65.33653242 392.21760038 66.125 395.4375 C72.60281695 407.26234292 81.99745936 417.60912443 91.125 427.4375 C91.67542969 428.04207031 92.22585938 428.64664062 92.79296875 429.26953125 C101.25417836 438.19036212 111.72411051 445.01768608 122.125 451.4375 C131.78973348 457.4297784 141.10030225 463.28100977 149.125 471.4375 C149.85203125 472.16582031 150.5790625 472.89414062 151.328125 473.64453125 C157.66102716 480.34098891 163.32534631 488.61360491 163.1875 498.125 C163.17847656 498.93324219 163.16945313 499.74148438 163.16015625 500.57421875 C163.14275391 501.49654297 163.14275391 501.49654297 163.125 502.4375 C152.47596903 502.55368907 141.82709051 502.64236466 131.17755318 502.69656086 C126.23174671 502.72258117 121.28637603 502.75784002 116.34082031 502.81469727 C111.56213004 502.86928817 106.78385719 502.89897736 102.004879 502.91188622 C100.18770661 502.92107772 98.37055536 502.93902622 96.55356216 502.96615028 C85.04449372 503.13102153 76.82013888 502.65990211 67.42578125 495.33203125 C62.38211308 490.05054768 58.12620357 484.54296348 54.125 478.4375 C53.68929688 477.81230469 53.25359375 477.18710937 52.8046875 476.54296875 C50.125 472.69208916 50.125 472.69208916 50.125 470.4375 C49.38378906 470.72882813 48.64257812 471.02015625 47.87890625 471.3203125 C44.30172405 472.71265514 40.71489326 474.07839973 37.125 475.4375 C36.48288574 475.68338867 35.84077148 475.92927734 35.17919922 476.18261719 C6.52876928 487.07875385 -23.41697365 490.6637229 -53.9375 490.6875 C-54.73024323 490.68817474 -55.52298645 490.68884949 -56.3397522 490.68954468 C-132.74240254 490.58806018 -213.81291599 476.87608132 -272.875 425.4375 C-273.555625 424.86902344 -274.23625 424.30054688 -274.9375 423.71484375 C-279.66180386 419.73380321 -284.04541699 415.40218172 -288.4375 411.0625 C-289.06317871 410.44987305 -289.68885742 409.83724609 -290.33349609 409.20605469 C-292.22294008 407.32008668 -294.04722627 405.38310911 -295.875 403.4375 C-296.53314697 402.81149902 -297.19129395 402.18549805 -297.86938477 401.54052734 C-304.43314183 394.56356161 -303.92509489 386.81261353 -303.6875 377.8125 C-303.67669403 377.03472198 -303.66588806 376.25694397 -303.65475464 375.45559692 C-303.44773167 361.71966681 -301.3596736 349.45238228 -296.875 336.4375 C-296.21310151 334.39639749 -295.55300931 332.35470853 -294.89453125 330.3125 C-275.50725273 271.41158641 -248.46669315 200.75188893 -204.875 155.4375 C-203.53308594 154.03564453 -203.53308594 154.03564453 -202.1640625 152.60546875 C-197.07257723 147.38997882 -197.07257723 147.38997882 -194.875 145.4375 C-194.215 145.4375 -193.555 145.4375 -192.875 145.4375 C-192.61154785 144.84428955 -192.3480957 144.2510791 -192.07666016 143.63989258 C-190.82476829 141.34543575 -189.5533506 139.97168887 -187.6484375 138.19921875 C-183.84071723 134.49885532 -180.67003819 130.49936534 -177.5 126.25 C-176.93764648 125.50459961 -176.37529297 124.75919922 -175.79589844 123.99121094 C-174.6698782 122.49735313 -173.54611919 121.00178777 -172.42480469 119.50439453 C-171.07475568 117.70390384 -169.71624165 115.91050014 -168.3515625 114.12109375 C-155.78738557 97.56723959 -144.34913384 80.09452722 -133.5 62.375 C-132.87996094 61.39660156 -132.25992188 60.41820312 -131.62109375 59.41015625 C-129.78194586 56.41492204 -129.78194586 56.41492204 -128.34765625 52.93359375 C-123.60004241 42.74047096 -116.18861084 39.59690067 -105.97119141 35.76123047 C-103.3994055 34.83017715 -100.82547557 33.91027889 -98.24609375 33.00097656 C-93.38253863 31.27781675 -88.56646052 29.43597276 -83.75 27.5859375 C-82.87025513 27.24823334 -81.99051025 26.91052917 -81.08410645 26.56259155 C-79.27909159 25.86965828 -77.47411963 25.17661326 -75.66918945 24.48345947 C-72.04065625 23.09409998 -68.40708393 21.71821728 -64.77331543 20.34262085 C-54.03483562 16.27698279 -43.33383068 12.12508106 -32.66235352 7.88671875 C-30.67115449 7.09740891 -28.67737703 6.31456203 -26.68066406 5.53930664 C-24.82302722 4.80979785 -22.97549048 4.0539801 -21.13964844 3.27124023 C-13.99336339 0.36605292 -7.6722353 -0.14224838 0 0 Z " fill="#000000" transform="translate(302.875,4.5625)"/>
<path d="M0 0 C1.9878452 1.37833358 2.83768672 2.49109483 3.97265625 4.61279297 C4.45798828 5.49064453 4.45798828 5.49064453 4.953125 6.38623047 C7.68208874 12.4591357 7.92688021 19.65902595 5.9140625 25.96826172 C3.20795309 31.83297751 -0.06002576 35.39694819 -5.21484375 39.23779297 C-9.86521175 37.63699322 -13.6651191 35.14783063 -17.71484375 32.42529297 C-18.36582031 31.99925781 -19.01679688 31.57322266 -19.6875 31.13427734 C-25.41240836 27.31188903 -29.77308452 23.85410616 -32.21484375 17.23779297 C-25.74932775 12.82609925 -19.15868508 8.68898194 -12.40234375 4.73779297 C-11.47486328 4.17576172 -10.54738281 3.61373047 -9.59179688 3.03466797 C-8.69783203 2.51388672 -7.80386719 1.99310547 -6.8828125 1.45654297 C-6.08125732 0.98152344 -5.27970215 0.50650391 -4.45385742 0.01708984 C-2.21484375 -0.76220703 -2.21484375 -0.76220703 0 0 Z " fill="#000000" transform="translate(354.21484375,86.76220703125)"/>
</svg>
